<?xml version="1.0" encoding="utf-8"?>
<!-- Generator: Adobe Illustrator 15.0.0, SVG Export Plug-In  -->
<!DOCTYPE svg PUBLIC "-//W3C//DTD SVG 1.1//EN" "http://www.w3.org/Graphics/SVG/1.1/DTD/svg11.dtd" [
	<!ENTITY ns_flows "http://ns.adobe.com/Flows/1.0/">
]>
<svg version="1.1"
	 xmlns="http://www.w3.org/2000/svg" xmlns:xlink="http://www.w3.org/1999/xlink" xmlns:a="http://ns.adobe.com/AdobeSVGViewerExtensions/3.0/"
	 x="0px" y="0px" width="1000px" height="400px" viewBox="-9.815 0 1000 400" enable-background="new -9.815 0 1000 400"
	 xml:space="preserve">
<defs>
</defs>
<path fill="#2B383D" d="M43.706,273.83c-1.295,20.449-3.294,40.955-5.228,60.736c-2.061,21.097-4.181,42.912-5.552,65.434h2.003
	c1.37-22.463,3.484-44.297,5.54-65.338c1.935-19.799,3.936-40.271,5.233-60.755c2.76-43.57,2.077-98.857,1.529-143.28
	C46.639,82.731,42.979,37.102,36.825,0h-2.029c6.171,37.063,9.842,82.731,10.434,130.676
	C45.779,175.066,46.46,230.336,43.706,273.83z"/>
<path fill="#2B383D" d="M384.217,239.473l1.343,14.206c4.187,44.482,6.676,95.262,7.436,146.321h4.998
	c-0.76-51.224-3.256-102.167-7.456-146.79l-1.343-14.209c-6.18-65.247-11.517-121.596-10.852-195.273
	c0.136-15.053,0.582-29.677,1.315-43.728h-4.957c-0.794,14.918-1.232,29.67-1.359,43.683
	C372.675,117.619,378.024,174.087,384.217,239.473z"/>
<path fill="#2B383D" d="M197.351,22.001c-0.055,7.897-0.112,16.063-0.103,23.923c0.07,60.011-5.029,131.578-13.309,186.77
	c-0.81,5.398-1.624,10.713-2.431,15.979c-5.715,37.321-11.114,72.571-12.102,118.772c-0.242,11.321-0.44,22.137-0.597,32.554h5
	c0.157-10.384,0.354-21.163,0.596-32.446c0.98-45.875,6.355-80.969,12.045-118.123c0.808-5.271,1.622-10.591,2.433-15.994
	c8.314-55.422,13.435-127.275,13.364-187.518c-0.009-7.839,0.047-15.995,0.103-23.882c0.051-7.311,0.101-14.685,0.104-22.036h-5
	C197.452,7.338,197.402,14.701,197.351,22.001z"/>
<path fill="#2B383D" d="M315.445,195.14c1.898,16.787,4.55,33.541,7.113,49.743c4.491,28.38,9.135,57.726,10.435,90.51
	c0.759,19.135,1.027,41.528,0.843,64.607h3c0.185-23.121-0.085-45.556-0.845-64.727c-1.307-32.96-5.965-62.394-10.469-90.859
	c-2.677-16.914-5.205-32.891-7.095-49.611c-4.84-42.799-0.316-102.005,4.058-159.263c0.917-11.993,1.823-23.874,2.647-35.54h-3.015
	c-0.823,11.726-1.725,23.551-2.624,35.312C315.108,92.708,310.574,152.059,315.445,195.14z"/>
<path fill="#2B383D" d="M221.578,256.499c0.096,3.697,0.2,7.531,0.308,11.47c0.803,29.44,1.801,66.079,0.318,94.321
	c-0.678,12.906-2.176,25.455-3.898,37.71h3.029c1.707-12.189,3.189-24.679,3.865-37.552c1.49-28.362,0.489-65.067-0.315-94.561
	c-0.107-3.938-0.212-7.771-0.308-11.467c-1.789-69.168-4.32-167.128-0.625-256.421h-3
	C217.258,89.378,219.788,187.32,221.578,256.499z"/>
<path fill="#2B383D" d="M66.062,37.532c-0.76,51.018-1.082,101.043,3.261,151.967c3.134,36.743,4.46,69.229,4.434,108.554
	c-0.023,35.645-0.766,68.285-2.378,101.947h1.998c1.613-33.676,2.356-66.325,2.38-102.002c0.026-39.387-1.302-71.894-4.441-108.697
	c-4.336-50.832-4.014-100.788-3.254-151.753c0.124-8.327,0.186-17.846,0.251-27.924C68.333,6.48,68.354,3.267,68.378,0h-2
	c-0.023,3.264-0.044,6.475-0.065,9.616C66.248,19.69,66.186,29.213,66.062,37.532z"/>
<path fill="#2B383D" d="M91.893,30.403c0.052,64.643,9.992,114.577,19.604,162.868c4.487,22.54,9.126,45.847,12.63,70.151
	c5.246,36.388,6.078,87.721,5.162,136.578h5c0.915-49.058,0.071-100.637-5.212-137.291c-3.523-24.437-8.175-47.81-12.675-70.415
	c-9.565-48.054-19.457-97.744-19.508-161.896C96.887,23.367,96.941,12.722,97.201,0h-4.997
	C91.942,12.722,91.888,23.361,91.893,30.403z"/>
<path fill="#2B383D" d="M143.819,16.643c0.731,38.449,4.218,74.122,7.591,108.62c2.275,23.28,4.628,47.353,6.126,72.144
	c3.788,62.707,3.676,133.003,3.046,202.593h5c0.63-69.662,0.742-140.04-3.055-202.895c-1.503-24.884-3.861-49.003-6.141-72.329
	c-3.363-34.402-6.84-69.976-7.568-108.229C148.713,11.04,148.709,5.521,148.756,0h-5C143.71,5.551,143.713,11.102,143.819,16.643z"
	/>
<path fill="#2B383D" d="M228.516,236.836c0.9,29.604,2.994,58.743,5.019,86.923c1.788,24.885,3.61,50.293,4.62,76.241h3.002
	c-1.01-26.031-2.837-51.507-4.63-76.456c-2.022-28.149-4.114-57.257-5.012-86.8c-2.34-77.02-3.276-156.633,5.651-217.146
	c1.001-6.788,2.09-13.303,3.249-19.598h-3.05c-1.127,6.159-2.188,12.53-3.166,19.161
	C225.236,79.904,226.171,159.678,228.516,236.836z"/>
<path fill="#2B383D" d="M347.053,264.731c1.844,20.133,4.251,40.004,6.58,59.22c2.979,24.586,6.017,49.725,7.955,76.049h5.014
	c-1.944-26.56-5.004-51.884-8.004-76.649c-2.324-19.182-4.728-39.016-6.564-59.074c-6.852-74.827-10.776-133.375-10.564-211.209
	c0.03-10.916,0.197-30.215,0.886-53.067h-4.999c-0.689,22.852-0.857,42.132-0.887,53.054
	C336.255,131.084,340.188,189.757,347.053,264.731z"/>
<path fill="#2B383D" d="M251.436,143.574c1.652,65.094,5.209,106.939,13.594,159.914c5.297,33.474,9.607,63.652,12.993,96.512h5.027
	c-3.404-33.154-7.743-63.554-13.082-97.289c-8.452-53.402-11.867-93.59-13.535-159.262C255.02,87.753,255.551,40.453,258.061,0
	h-5.009C250.549,40.535,250.021,87.878,251.436,143.574z"/>
<path fill="#2B383D" d="M280.678,239.832c3.967,50.712,10.399,99.689,16.62,147.055c0.571,4.346,1.145,8.724,1.719,13.113h3.026
	c-0.592-4.521-1.183-9.029-1.771-13.504c-6.215-47.326-12.642-96.265-16.603-146.898c-4.614-58.974-4.931-132.968-0.941-219.926
	c0.313-6.82,0.752-13.357,1.286-19.672h-3.012c-0.527,6.271-0.96,12.764-1.271,19.534
	C275.736,106.615,276.055,180.734,280.678,239.832z"/>
<path fill="#2B383D" d="M392.011,183.006c5.498,44.323,12.085,87.493,18.457,129.242c4.391,28.771,8.832,57.883,12.975,87.752h5.048
	c-4.173-30.135-8.652-59.495-13.08-88.507c-6.366-41.714-12.949-84.849-18.438-129.103C392.221,144.075,385.556,71.214,391.951,0
	h-5.025C380.558,71.537,387.243,144.568,392.011,183.006z"/>
<path fill="#2B383D" d="M24.917,168.529c0.741,68.091-3.786,122.996-14.245,172.79c-3.625,17.256-6.784,35.829-9.839,53.791
	C0.557,396.734,0.278,398.368,0,400h5.072c0.23-1.352,0.461-2.706,0.69-4.052c3.047-17.915,6.198-36.439,9.803-53.602
	c10.536-50.158,15.096-105.407,14.351-173.872c-0.432-39.659-4.563-79.183-8.56-117.406C19.554,33.82,17.776,16.812,16.335,0h-5.019
	c1.451,16.986,3.246,34.166,5.068,51.589C20.368,89.697,24.488,129.104,24.917,168.529z"/>
<path fill="#2B383D" d="M525.706,273.83c-1.295,20.448-3.294,40.951-5.228,60.732c-2.063,21.099-4.182,42.915-5.554,65.438h2.004
	c1.369-22.464,3.484-44.3,5.54-65.342c1.936-19.798,3.936-40.27,5.233-60.751c2.76-43.591,2.077-98.866,1.528-143.28
	C528.64,82.733,524.979,37.103,518.825,0h-2.029c6.172,37.064,9.843,82.733,10.435,130.676
	C527.779,175.057,528.462,230.315,525.706,273.83z"/>
<path fill="#2B383D" d="M866.219,239.49l1.341,14.188c4.188,44.481,6.677,95.262,7.437,146.321h4.999
	c-0.761-51.224-3.257-102.168-7.457-146.79l-1.342-14.191c-6.181-65.253-11.519-121.607-10.854-195.291
	c0.136-15.053,0.582-29.677,1.315-43.728h-4.956c-0.794,14.918-1.232,29.67-1.359,43.683
	C854.676,117.625,860.024,174.099,866.219,239.49z"/>
<path fill="#2B383D" d="M679.352,21.994c-0.055,7.899-0.111,16.068-0.103,23.93c0.07,60.013-5.03,131.579-13.31,186.77
	c-0.81,5.396-1.623,10.71-2.43,15.976c-5.716,37.321-11.114,72.573-12.102,118.776c-0.242,11.321-0.44,22.137-0.598,32.554h5
	c0.157-10.383,0.354-21.162,0.596-32.446c0.981-45.877,6.355-80.972,12.046-118.127c0.808-5.271,1.622-10.589,2.433-15.99
	c8.313-55.421,13.435-127.273,13.364-187.518c-0.009-7.842,0.048-16,0.103-23.89c0.051-7.308,0.102-14.68,0.104-22.029h-5
	C679.452,7.335,679.402,14.696,679.352,21.994z"/>
<path fill="#2B383D" d="M797.446,195.14c1.897,16.788,4.549,33.542,7.113,49.746c4.49,28.379,9.134,57.724,10.434,90.507
	c0.759,19.135,1.027,41.528,0.843,64.607h3c0.185-23.121-0.085-45.556-0.845-64.727c-1.307-32.959-5.965-62.393-10.469-90.856
	c-2.677-16.915-5.205-32.893-7.096-49.614c-4.84-42.799-0.316-102.006,4.059-159.264c0.916-11.993,1.822-23.874,2.646-35.539h-3.015
	c-0.823,11.726-1.725,23.55-2.623,35.311C797.108,92.708,792.574,152.059,797.446,195.14z"/>
<path fill="#2B383D" d="M703.577,256.499c0.097,3.697,0.201,7.531,0.309,11.47c0.802,29.44,1.801,66.079,0.317,94.321
	c-0.678,12.906-2.176,25.455-3.898,37.71h3.029c1.707-12.189,3.189-24.679,3.865-37.552c1.489-28.362,0.489-65.067-0.315-94.561
	c-0.107-3.938-0.212-7.771-0.308-11.467C704.787,187.253,702.256,89.294,705.95,0h-3.006
	C699.7,80.275,701.377,171.44,703.577,256.499z"/>
<path fill="#2B383D" d="M548.062,37.532c-0.76,51.02-1.081,101.047,3.262,151.967c3.133,36.732,4.459,69.217,4.434,108.554
	c-0.023,35.645-0.766,68.285-2.377,101.947h1.997c1.614-33.676,2.356-66.325,2.38-102.002c0.025-39.397-1.303-71.905-4.441-108.697
	c-4.335-50.829-4.013-100.786-3.254-151.753c0.124-8.327,0.186-17.846,0.251-27.924c0.021-3.144,0.041-6.357,0.064-9.624h-2
	c-0.023,3.264-0.044,6.475-0.064,9.616C548.247,19.69,548.186,29.213,548.062,37.532z"/>
<path fill="#2B383D" d="M573.894,32.171c0.052,65.283,9.991,115.713,19.604,164.483c4.486,22.764,9.126,46.303,12.63,70.85
	c5.053,35.404,6.012,84.812,5.258,132.496h4.999c0.754-47.885-0.218-97.539-5.308-133.203c-3.522-24.677-8.175-48.282-12.674-71.11
	c-9.566-48.535-19.458-98.724-19.51-163.52c-0.006-7.37,0.053-18.674,0.339-32.167h-4.997
	C573.947,13.495,573.888,24.792,573.894,32.171z"/>
<path fill="#2B383D" d="M625.819,16.643c0.73,38.447,4.218,74.119,7.59,108.615c2.275,23.282,4.629,47.356,6.127,72.149
	c3.788,62.707,3.676,133.003,3.046,202.593h5c0.631-69.662,0.741-140.041-3.056-202.895c-1.503-24.885-3.86-49.006-6.141-72.333
	c-3.363-34.401-6.84-69.973-7.568-108.224C630.713,11.04,630.709,5.521,630.756,0h-5C625.71,5.551,625.714,11.102,625.819,16.643z"
	/>
<path fill="#2B383D" d="M710.516,236.836c0.899,29.603,2.993,58.74,5.019,86.919c1.788,24.886,3.61,50.295,4.62,76.245h3.003
	c-1.011-26.033-2.838-51.51-4.631-76.461c-2.022-28.147-4.114-57.254-5.013-86.795c-2.34-77.017-3.275-156.628,5.652-217.146
	c1.001-6.788,2.09-13.303,3.248-19.598h-3.051c-1.126,6.159-2.188,12.53-3.166,19.161
	C707.236,79.91,708.171,159.681,710.516,236.836z"/>
<path fill="#2B383D" d="M829.053,272.549c1.844,20.517,4.252,40.767,6.58,60.351c2.593,21.801,5.233,44.023,7.152,67.101h5.017
	c-1.928-23.299-4.59-45.709-7.204-67.691c-2.324-19.548-4.728-39.763-6.564-60.207c-6.852-76.254-10.777-135.917-10.564-215.229
	C823.5,45.306,823.68,24.505,824.439,0h-4.999c-0.76,24.507-0.94,45.286-0.972,56.858
	C818.256,136.364,822.188,196.149,829.053,272.549z"/>
<path fill="#2B383D" d="M733.436,148.351c1.651,66.14,5.209,108.723,13.593,162.562c4.815,30.919,8.814,59.111,12.045,89.087h5.035
	c-3.252-30.309-7.281-58.779-12.139-89.975c-8.454-54.28-11.869-95.123-13.536-161.858C736.992,90.469,737.572,41.637,740.21,0
	h-5.008C732.57,41.734,731.993,90.641,733.436,148.351z"/>
<path fill="#2B383D" d="M762.679,239.832c3.967,50.712,10.398,99.69,16.619,147.056c0.57,4.346,1.145,8.723,1.719,13.112h3.026
	c-0.592-4.521-1.183-9.029-1.771-13.503c-6.216-47.327-12.643-96.266-16.604-146.899c-4.614-58.974-4.931-132.968-0.941-219.926
	c0.313-6.82,0.752-13.357,1.286-19.672h-3.012c-0.526,6.271-0.96,12.764-1.271,19.534
	C757.735,106.615,758.055,180.734,762.679,239.832z"/>
<path fill="#2B383D" d="M874.011,183.006c5.498,44.323,12.086,87.493,18.457,129.242c4.391,28.771,8.833,57.883,12.976,87.752h5.048
	c-4.174-30.135-8.652-59.495-13.08-88.507c-6.366-41.714-12.949-84.849-18.438-129.103C874.221,144.075,867.556,71.214,873.951,0
	h-5.025C862.558,71.538,869.243,144.568,874.011,183.006z"/>
<path fill="#2B383D" d="M913.004,303.882c5.946,39.678,15.009,69.307,24.589,96.118h5.313
	c-9.719-27.029-18.953-56.802-24.956-96.858c-10.191-68.008-15.394-160.374-15.463-274.533C902.48,18.476,902.55,8.965,902.703,0h-5
	c-0.153,8.975-0.223,18.486-0.217,28.611C897.556,143.017,902.777,235.631,913.004,303.882z"/>
<path fill="#2B383D" d="M956.004,303.882c5.946,39.678,15.009,69.307,24.589,96.118h5.313
	c-9.719-27.029-18.953-56.802-24.956-96.858c-10.191-68.008-15.394-160.374-15.463-274.533C945.48,18.476,945.55,8.965,945.703,0h-5
	c-0.153,8.975-0.223,18.486-0.217,28.611C940.556,143.017,945.777,235.631,956.004,303.882z"/>
<path fill="#2B383D" d="M506.852,270.17c0.712,47.632-1.262,90.379-6.097,129.83h5.036c4.809-39.51,6.772-82.287,6.061-129.904
	c-0.786-52.434-8.306-104.686-15.579-155.217C490.641,75.746,485.151,37.549,482.665,0h-5.017
	c2.49,37.81,8.011,76.23,13.676,115.591C498.574,165.966,506.071,218.058,506.852,270.17z"/>
</svg>
